# xmcd
#
# Track frame offsets:
#	150
#	15171
#	30927
#	45085
#	59813
#	75052
#	90011
#	102425
#	115803
#	134802
#	148761
#	163937
#	178838
#	193965
#	207011
#	223128
#	239229
#	251053
#	267818
#	281013
#	295538
#	309352
#
# Disc length: 4324 seconds
#
# Revision: 0
# Processed by: cddbd v1.5.2PL0 Copyright (c) Steve Scherf et al.
# Submitted via: EasyCDDAExtractor 16.0.6.1
#
DISCID=3a10e216
DTITLE=Various Artist - Nrj Summer Hits Only 2018 [CD2)
DYEAR=2018
DGENRE=Pop
TTITLE0=Christine And The Queens Feat Dam-Funk - Damn Dis-Moi
TTITLE1=Shawn Mendes - In My Blood
TTITLE2=Kendji Girac - Maria Maria
TTITLE3=Sofia Reyes Feat Jason Derulo and De La Ghetto - 1 2 3
TTITLE4=Marshmello - Friends
TTITLE5=Vitaa - Un Peu De Reve
TTITLE6=El Professor - Bella Ciao (Hugel Remix)
TTITLE7=Louane - Immobile
TTITLE8=Bad Wolves - Zombie
TTITLE9=Keen'v - Tu Realises ?
TTITLE10=Becky G Feat Bad Bunny - Mayores
TTITLE11=Slimane - Viens On S'aime
TTITLE12=Diplo Feat Lil Yachty and Santigold - Worry No More
TTITLE13=Jen Jis and Feder Feat Bright Sparks - Keep Us Apart
TTITLE14=Mc Fioti - Bum Bum Tam Tam
TTITLE15=Rita Ora - Anywhere
TTITLE16=Basada Feat Camden Cox - Good Vibes
TTITLE17=Camelphat - Cola
TTITLE18=Sara'h Feat Annalisa - Je Me Souviens De Tout
TTITLE19=The Chainsmokers - Sick Boy
TTITLE20=Tom Walker - Leave A Light On
TTITLE21=Sean Paul and David Guetta and Becky G - Mad Love
EXTD=
EXTT0=
EXTT1=
EXTT2=
EXTT3=
EXTT4=
EXTT5=
EXTT6=
EXTT7=
EXTT8=
EXTT9=
EXTT10=
EXTT11=
EXTT12=
EXTT13=
EXTT14=
EXTT15=
EXTT16=
EXTT17=
EXTT18=
EXTT19=
EXTT20=
EXTT21=
PLAYORDER=
